<svg preserveAspectRatio="none" overflow="visible" style="display: block;" width="49.8019" height="49.8021" viewBox="0 0 49.8019 49.8021" fill="none" xmlns="http://www.w3.org/2000/svg">
<path id="Vector" d="M24.284 0.00779596C38.0445 -0.333198 49.4712 10.5546 49.7949 24.3153C50.1186 38.0761 39.2164 49.4893 25.4554 49.7958C11.7187 50.1018 0.330208 39.2233 0.00702718 25.4867C-0.316154 11.7503 10.5482 0.348158 24.284 0.00779596ZM14.9977 42.7855C16.3908 42.7086 17.6184 42.3493 18.9484 42.0879L25.3993 40.8419L34.2502 39.1241C34.6206 39.0563 35.0447 39.027 35.404 38.9366C36.9735 38.5414 38.549 38.3723 40.1148 37.9703C41.6322 37.5802 42.7779 36.0909 42.6287 34.5007C42.4994 33.1883 42.1887 31.9422 41.9545 30.6558L40.2035 21.483C39.4801 17.7102 38.8077 13.9233 38.073 10.1523C37.7352 8.41864 36.6931 7.08229 34.8072 7.04625C33.5545 7.06954 32.2189 7.52351 30.9949 7.68339C29.7886 7.84091 28.748 8.13927 27.5784 8.35358L24.5866 8.92131C24.2607 8.98195 23.9039 9.00622 23.5841 9.07843C22.0446 9.42589 20.5008 9.74831 18.9462 10.0316C17.5566 10.2201 16.1986 10.6171 14.8243 10.8405C14.0242 10.9705 13.2756 11.1636 12.492 11.3007C11.5009 11.4742 10.6265 11.5836 9.63981 11.8554C8.09939 12.2798 7.0324 13.64 7.11628 15.2569C7.18396 16.5141 7.53694 17.6647 7.75237 18.8829C8.44178 22.8268 9.19383 26.7592 10.0082 30.6789L11.2629 37.1896C11.4762 38.3054 11.6406 39.4665 11.9442 40.5664C12.0359 40.8988 12.5072 41.5915 12.7763 41.8356C13.512 42.5024 14.0596 42.6435 14.9977 42.7855Z" fill="#F12625"/>
</svg>
